<svg width="657.9px" height="121.4px" xmlns="http://www.w3.org/2000/svg" viewBox="-78.94687499999998 14.300000000000004 657.89375 121.39999999999999" style="background: rgba(0, 0, 0, 0)" preserveAspectRatio="xMidYMid"><defs><filter id="editing-offset"><feFlood flood-color="#f00" flood-opacity="0.5" result="c1"></feFlood><feFlood flood-color="#0f0" flood-opacity="0.5" result="c2"></feFlood><feFlood flood-color="#00f" flood-opacity="0.5" result="c3"></feFlood><feComposite operator="in" in="c1" in2="SourceAlpha" result="text-c1"></feComposite><feComposite operator="in" in="c2" in2="SourceAlpha" result="text-c2"></feComposite><feComposite operator="in" in="c3" in2="SourceAlpha" result="text-c3"></feComposite><feOffset in="text-c1" dx="-10" dy="0" result="text1"></feOffset><feOffset in="text-c2" dx="10" dy="0" result="text2"></feOffset><feOffset in="text-c3" dx="0" dy="0" result="text3"></feOffset><feMerge><feMergeNode in="text1"></feMergeNode><feMergeNode in="text2"></feMergeNode><feMergeNode in="text3"></feMergeNode></feMerge></filter></defs><g filter="url(#editing-offset)"><g transform="matrix(1.3,0,0,2,-51.2,250.8)"><path d="M 5.8 -72.1 L -8.1 -72.1 L 0 -114.3 L 14.1 -114.3 L 5.8 -72.1 Z M 61.6 -70.8 L 61.6 -70.8 L 61.6 -70.8 Q 53.8 -70.8 53.8 -76.8 L 53.8 -76.8 L 53.8 -76.8 Q 53.8 -79.4 55 -84.5 L 55 -84.5 L 55 -84.5 Q 56.1 -89.6 56.5 -91.7 L 56.5 -91.7 L 56.5 -91.7 Q 57.4 -96.3 57.4 -97.8 L 57.4 -97.8 L 57.4 -97.8 Q 57.4 -101.1 54.9 -101.1 L 54.9 -101.1 L 54.9 -101.1 Q 53.3 -101.1 51.8 -98.9 L 51.8 -98.9 L 51.8 -98.9 Q 50.2 -96.7 49.5 -92.2 L 49.5 -92.2 L 45.6 -72.1 L 33.1 -70.8 L 36.6 -88.2 L 36.6 -88.2 Q 37.1 -91.1 37.6 -94.4 L 37.6 -94.4 L 37.6 -94.4 Q 38.2 -97.6 38.2 -98.1 L 38.2 -98.1 L 38.2 -98.1 Q 38.2 -101.1 36 -101.1 L 36 -101.1 L 36 -101.1 Q 34.5 -101.1 32.9 -98.9 L 32.9 -98.9 L 32.9 -98.9 Q 31.3 -96.7 30.4 -92.2 L 30.4 -92.2 L 26.5 -72.1 L 13.9 -70.8 L 20.6 -104.7 L 31 -106 L 30 -99.5 L 30 -99.5 Q 31.6 -103 34.7 -104.5 L 34.7 -104.5 L 34.7 -104.5 Q 37.8 -106 42.6 -106 L 42.6 -106 L 42.6 -106 Q 45.3 -106 47.1 -104.7 L 47.1 -104.7 L 47.1 -104.7 Q 48.9 -103.3 49.5 -101.1 L 49.5 -101.1 L 49.5 -101.1 Q 50.6 -103.4 53.4 -104.7 L 53.4 -104.7 L 53.4 -104.7 Q 56.1 -106 59.6 -106 L 59.6 -106 L 59.6 -106 Q 63 -106 64.7 -105.3 L 64.7 -105.3 L 64.7 -105.3 Q 66.4 -104.5 67.4 -103.3 L 67.4 -103.3 L 67.4 -103.3 Q 69.1 -101.1 69.1 -97 L 69.1 -97 L 69.1 -97 Q 69.1 -92.9 67.4 -84.6 L 67.4 -84.6 L 67.4 -84.6 Q 66.5 -80.5 66.5 -79 L 66.5 -79 L 66.5 -79 Q 66.5 -77.5 67.4 -76.6 L 67.4 -76.6 L 67.4 -76.6 Q 68.2 -75.7 69.5 -75.5 L 69.5 -75.5 L 69.5 -75.5 Q 68.9 -73.4 66.7 -72.1 L 66.7 -72.1 L 66.7 -72.1 Q 64.5 -70.8 61.6 -70.8 Z M 77.2 -74 L 77.2 -74 L 77.2 -74 Q 75.7 -75.7 75 -78.3 L 75 -78.3 L 75 -78.3 Q 74.4 -80.9 74.4 -85.2 L 74.4 -85.2 L 74.4 -85.2 Q 74.4 -89.5 75.8 -93.4 L 75.8 -93.4 L 75.8 -93.4 Q 77.3 -97.3 80 -100.1 L 80 -100.1 L 80 -100.1 Q 85.5 -106 94.6 -106 L 94.6 -106 L 94.6 -106 Q 97.9 -106 100.2 -104.9 L 100.2 -104.9 L 111.2 -106 L 106.4 -81 L 106.4 -81 Q 106.2 -80.3 106.2 -78.9 L 106.2 -78.9 L 106.2 -78.9 Q 106.2 -77.5 107.1 -76.6 L 107.1 -76.6 L 107.1 -76.6 Q 108 -75.7 109.3 -75.5 L 109.3 -75.5 L 109.3 -75.5 Q 108.6 -73.4 106.3 -72.1 L 106.3 -72.1 L 106.3 -72.1 Q 103.9 -70.8 101.3 -70.8 L 101.3 -70.8 L 101.3 -70.8 Q 98.7 -70.8 96.9 -71.8 L 96.9 -71.8 L 96.9 -71.8 Q 95.2 -72.8 94.7 -74.5 L 94.7 -74.5 L 94.7 -74.5 Q 93.6 -72.9 91.5 -71.8 L 91.5 -71.8 L 91.5 -71.8 Q 89.3 -70.8 86.4 -70.8 L 86.4 -70.8 L 86.4 -70.8 Q 83.5 -70.8 81.1 -71.6 L 81.1 -71.6 L 81.1 -71.6 Q 78.7 -72.3 77.2 -74 Z M 90.7 -100 L 90.7 -100 L 90.7 -100 Q 90 -98.8 89.4 -96.9 L 89.4 -96.9 L 89.4 -96.9 Q 88.7 -94.9 87.7 -89.7 L 87.7 -89.7 L 87.7 -89.7 Q 86.6 -84.5 86.6 -80.8 L 86.6 -80.8 L 86.6 -80.8 Q 86.6 -77.1 87.2 -76 L 87.2 -76 L 87.2 -76 Q 87.8 -74.9 88.8 -74.9 L 88.8 -74.9 L 88.8 -74.9 Q 90.8 -74.9 92.3 -76.9 L 92.3 -76.9 L 92.3 -76.9 Q 93.8 -78.8 94.4 -82.3 L 94.4 -82.3 L 97.8 -101 L 97.8 -101 Q 96.5 -102.2 94.9 -102.2 L 94.9 -102.2 L 94.9 -102.2 Q 93.3 -102.2 92.4 -101.7 L 92.4 -101.7 L 92.4 -101.7 Q 91.5 -101.1 90.7 -100 Z M 118.9 -98.8 L 118.9 -98.8 L 118.9 -98.8 Q 121.1 -101.9 124.4 -104 L 124.4 -104 L 124.4 -104 Q 127.7 -106 131.7 -106 L 131.7 -106 L 131.7 -106 Q 135.8 -106 137.7 -104.7 L 137.7 -104.7 L 150.2 -106 L 145.9 -81.4 L 145.9 -81.4 Q 143.6 -68.9 138.9 -64 L 138.9 -64 L 138.9 -64 Q 134.3 -59.3 125.5 -59.3 L 125.5 -59.3 L 125.5 -59.3 Q 118.8 -59.3 115 -61.4 L 115 -61.4 L 115 -61.4 Q 111.1 -63.5 111.1 -67 L 111.1 -67 L 111.1 -67 Q 111.1 -69.7 113.1 -71.2 L 113.1 -71.2 L 113.1 -71.2 Q 115.1 -72.7 118.2 -72.7 L 118.2 -72.7 L 118.2 -72.7 Q 120.8 -72.7 122.9 -71.4 L 122.9 -71.4 L 122.9 -71.4 Q 124.1 -70.8 124.7 -69.9 L 124.7 -69.9 L 124.7 -69.9 Q 123.2 -68.6 123.2 -66.5 L 123.2 -66.5 L 123.2 -66.5 Q 123.2 -63.8 125.8 -63.8 L 125.8 -63.8 L 125.8 -63.8 Q 130.1 -63.8 132.5 -73.9 L 132.5 -73.9 L 132.5 -73.9 Q 133.2 -76.6 133.8 -79.4 L 133.8 -79.4 L 133.8 -79.4 Q 130.9 -75.9 124.4 -75.9 L 124.4 -75.9 L 124.4 -75.9 Q 119.8 -75.9 117.2 -78 L 117.2 -78 L 117.2 -78 Q 114.6 -80.2 114.6 -85.3 L 114.6 -85.3 L 114.6 -85.3 Q 114.6 -88.5 115.7 -92.1 L 115.7 -92.1 L 115.7 -92.1 Q 116.7 -95.8 118.9 -98.8 Z M 127.2 -85.1 L 127.2 -85.1 L 127.2 -85.1 Q 127.2 -80.8 129.5 -80.8 L 129.5 -80.8 L 129.5 -80.8 Q 131 -80.8 132.5 -82.5 L 132.5 -82.5 L 132.5 -82.5 Q 133.6 -83.8 134.1 -85.8 L 134.1 -85.8 L 137.4 -102.2 L 137.4 -102.2 Q 137 -102.3 136.7 -102.4 L 136.7 -102.4 L 136.7 -102.4 Q 136.1 -102.7 135.2 -102.7 L 135.2 -102.7 L 135.2 -102.7 Q 131.3 -102.7 129 -96.3 L 129 -96.3 L 129 -96.3 Q 127.2 -91.3 127.2 -85.1 Z M 178.6 -82.9 L 178.6 -82.9 L 178.6 -82.9 Q 180.2 -81.8 180.2 -79.4 L 180.2 -79.4 L 180.2 -79.4 Q 180.2 -77 179 -75.5 L 179 -75.5 L 179 -75.5 Q 177.8 -73.9 175.8 -72.9 L 175.8 -72.9 L 175.8 -72.9 Q 171.7 -70.8 167.3 -70.8 L 167.3 -70.8 L 167.3 -70.8 Q 162.9 -70.8 160.3 -71.8 L 160.3 -71.8 L 160.3 -71.8 Q 157.7 -72.7 156 -74.5 L 156 -74.5 L 156 -74.5 Q 152.6 -77.9 152.6 -84.1 L 152.6 -84.1 L 152.6 -84.1 Q 152.6 -93.8 157.8 -99.7 L 157.8 -99.7 L 157.8 -99.7 Q 163.5 -106 173.3 -106 L 173.3 -106 L 173.3 -106 Q 179.3 -106 182.3 -103.4 L 182.3 -103.4 L 182.3 -103.4 Q 184.6 -101.5 184.6 -98.4 L 184.6 -98.4 L 184.6 -98.4 Q 184.6 -87.1 165.1 -87.1 L 165.1 -87.1 L 165.1 -87.1 Q 164.9 -85.5 164.9 -84.1 L 164.9 -84.1 L 164.9 -84.1 Q 164.9 -81.1 166.2 -80 L 166.2 -80 L 166.2 -80 Q 167.5 -78.9 169.9 -78.9 L 169.9 -78.9 L 169.9 -78.9 Q 172.4 -78.9 175 -80 L 175 -80 L 175 -80 Q 177.5 -81.1 178.6 -82.9 Z M 165.6 -89.9 L 165.6 -89.9 L 165.6 -89.9 Q 170.1 -89.9 172.7 -92.7 L 172.7 -92.7 L 172.7 -92.7 Q 175.4 -95.4 175.4 -99.7 L 175.4 -99.7 L 175.4 -99.7 Q 175.4 -101.1 174.8 -101.9 L 174.8 -101.9 L 174.8 -101.9 Q 174.3 -102.7 173.2 -102.7 L 173.2 -102.7 L 173.2 -102.7 Q 172.1 -102.7 171.2 -102.3 L 171.2 -102.3 L 171.2 -102.3 Q 170.2 -101.9 169.3 -100.5 L 169.3 -100.5 L 169.3 -100.5 Q 166.9 -97.3 165.6 -89.9 Z M 205.9 -94.5 L 205.9 -94.5 L 205.9 -94.5 Q 206.8 -96.9 206.8 -99 L 206.8 -99 L 206.8 -99 Q 206.8 -102.7 203.7 -102.7 L 203.7 -102.7 L 203.7 -102.7 Q 202.1 -102.7 200.8 -101.3 L 200.8 -101.3 L 200.8 -101.3 Q 199.5 -99.9 199.5 -98.1 L 199.5 -98.1 L 199.5 -98.1 Q 199.5 -96.8 200.5 -95.8 L 200.5 -95.8 L 200.5 -95.8 Q 202 -94.4 205.8 -92.1 L 205.8 -92.1 L 205.8 -92.1 Q 209.5 -89.7 211 -87.9 L 211 -87.9 L 211 -87.9 Q 212.4 -86 212.4 -83.4 L 212.4 -83.4 L 212.4 -83.4 Q 212.4 -80.8 211.2 -78.4 L 211.2 -78.4 L 211.2 -78.4 Q 209.9 -76.1 207.7 -74.4 L 207.7 -74.4 L 207.7 -74.4 Q 202.9 -70.8 195.2 -70.8 L 195.2 -70.8 L 195.2 -70.8 Q 191 -70.8 187.8 -73 L 187.8 -73 L 187.8 -73 Q 184.6 -75.1 184.6 -77.6 L 184.6 -77.6 L 184.6 -77.6 Q 184.6 -80.1 186.5 -81.6 L 186.5 -81.6 L 186.5 -81.6 Q 188.3 -83 191 -83 L 191 -83 L 191 -83 Q 193.7 -83 195.3 -82 L 195.3 -82 L 195.3 -82 Q 194.5 -79.9 194.5 -78.5 L 194.5 -78.5 L 194.5 -78.5 Q 194.5 -74.3 198.1 -74.3 L 198.1 -74.3 L 198.1 -74.3 Q 199.6 -74.3 200.6 -75.2 L 200.6 -75.2 L 200.6 -75.2 Q 201.7 -76.2 201.7 -77.8 L 201.7 -77.8 L 201.7 -77.8 Q 201.7 -81.1 196.2 -84.6 L 196.2 -84.6 L 196.2 -84.6 Q 191.7 -87.5 190.7 -88.7 L 190.7 -88.7 L 190.7 -88.7 Q 188.9 -90.7 188.9 -93.3 L 188.9 -93.3 L 188.9 -93.3 Q 188.9 -95.8 190.2 -98.3 L 190.2 -98.3 L 190.2 -98.3 Q 191.4 -100.7 193.6 -102.4 L 193.6 -102.4 L 193.6 -102.4 Q 198.3 -106 206.4 -106 L 206.4 -106 L 206.4 -106 Q 210.6 -106 213 -104.3 L 213 -104.3 L 213 -104.3 Q 215.5 -102.7 215.5 -99.9 L 215.5 -99.9 L 215.5 -99.9 Q 215.5 -97 213.8 -95.4 L 213.8 -95.4 L 213.8 -95.4 Q 212.1 -93.8 209 -93.8 L 209 -93.8 L 209 -93.8 Q 206.9 -93.8 205.9 -94.5 Z M 257 -92.7 L 269.9 -93.8 L 269.9 -93.8 Q 265.3 -83.7 265.3 -72 L 265.3 -72 L 265.3 -72 Q 263.6 -70.8 261 -70.8 L 261 -70.8 L 261 -70.8 Q 258.5 -70.8 256.9 -72 L 256.9 -72 L 256.9 -72 Q 255.3 -73.2 255 -74.4 L 255 -74.4 L 255 -74.4 Q 253.4 -72.7 250.8 -71.8 L 250.8 -71.8 L 250.8 -71.8 Q 248.2 -70.8 245.4 -70.8 L 245.4 -70.8 L 245.4 -70.8 Q 242.7 -70.8 240.3 -71.7 L 240.3 -71.7 L 240.3 -71.7 Q 237.9 -72.6 236 -74.6 L 236 -74.6 L 236 -74.6 Q 231.9 -78.9 231.9 -87.2 L 231.9 -87.2 L 231.9 -87.2 Q 231.9 -100 238.8 -107.7 L 238.8 -107.7 L 238.8 -107.7 Q 245.8 -115.6 258.3 -115.6 L 258.3 -115.6 L 258.3 -115.6 Q 267 -115.6 270 -111.1 L 270 -111.1 L 270 -111.1 Q 271 -109.7 271 -108 L 271 -108 L 271 -108 Q 271 -106.3 270.2 -104.9 L 270.2 -104.9 L 270.2 -104.9 Q 269.5 -103.4 268.4 -102.3 L 268.4 -102.3 L 268.4 -102.3 Q 265.6 -99.7 262.2 -99.7 L 262.2 -99.7 L 262.2 -99.7 Q 260.9 -99.7 259.6 -100.2 L 259.6 -100.2 L 259.6 -100.2 Q 259.8 -102.1 259.8 -104.3 L 259.8 -104.3 L 259.8 -104.3 Q 259.8 -106.6 259.7 -107.6 L 259.7 -107.6 L 259.7 -107.6 Q 259.5 -108.6 259.1 -109.5 L 259.1 -109.5 L 259.1 -109.5 Q 258.3 -111.2 256.5 -111.2 L 256.5 -111.2 L 256.5 -111.2 Q 254.7 -111.2 252.6 -109.2 L 252.6 -109.2 L 252.6 -109.2 Q 250.6 -107.3 249 -104.1 L 249 -104.1 L 249 -104.1 Q 245.5 -96.9 245.5 -88.3 L 245.5 -88.3 L 245.5 -88.3 Q 245.5 -84.3 247 -81.5 L 247 -81.5 L 247 -81.5 Q 248.7 -78.4 251.7 -78.4 L 251.7 -78.4 L 251.7 -78.4 Q 252.7 -78.4 253.6 -78.9 L 253.6 -78.9 L 253.6 -78.9 Q 254.5 -79.4 254.9 -79.8 L 254.9 -79.8 L 257 -92.7 Z M 275.8 -74 L 275.8 -74 L 275.8 -74 Q 274.3 -75.7 273.6 -78.3 L 273.6 -78.3 L 273.6 -78.3 Q 273 -80.9 273 -85.2 L 273 -85.2 L 273 -85.2 Q 273 -89.5 274.4 -93.4 L 274.4 -93.4 L 274.4 -93.4 Q 275.9 -97.3 278.6 -100.1 L 278.6 -100.1 L 278.6 -100.1 Q 284.1 -106 293.2 -106 L 293.2 -106 L 293.2 -106 Q 296.5 -106 298.8 -104.9 L 298.8 -104.9 L 309.8 -106 L 305 -81 L 305 -81 Q 304.8 -80.3 304.8 -78.9 L 304.8 -78.9 L 304.8 -78.9 Q 304.8 -77.5 305.7 -76.6 L 305.7 -76.6 L 305.7 -76.6 Q 306.6 -75.7 307.8 -75.5 L 307.8 -75.5 L 307.8 -75.5 Q 307.2 -73.4 304.9 -72.1 L 304.9 -72.1 L 304.9 -72.1 Q 302.5 -70.8 299.9 -70.8 L 299.9 -70.8 L 299.9 -70.8 Q 297.3 -70.8 295.5 -71.8 L 295.5 -71.8 L 295.5 -71.8 Q 293.8 -72.8 293.3 -74.5 L 293.3 -74.5 L 293.3 -74.5 Q 292.2 -72.9 290.1 -71.8 L 290.1 -71.8 L 290.1 -71.8 Q 287.9 -70.8 285 -70.8 L 285 -70.8 L 285 -70.8 Q 282.1 -70.8 279.7 -71.6 L 279.7 -71.6 L 279.7 -71.6 Q 277.3 -72.3 275.8 -74 Z M 289.3 -100 L 289.3 -100 L 289.3 -100 Q 288.6 -98.8 287.9 -96.9 L 287.9 -96.9 L 287.9 -96.9 Q 287.3 -94.9 286.2 -89.7 L 286.2 -89.7 L 286.2 -89.7 Q 285.2 -84.5 285.2 -80.8 L 285.2 -80.8 L 285.2 -80.8 Q 285.2 -77.1 285.8 -76 L 285.8 -76 L 285.8 -76 Q 286.3 -74.9 287.4 -74.9 L 287.4 -74.9 L 287.4 -74.9 Q 289.4 -74.9 290.9 -76.9 L 290.9 -76.9 L 290.9 -76.9 Q 292.4 -78.8 293 -82.3 L 293 -82.3 L 296.4 -101 L 296.4 -101 Q 295 -102.2 293.5 -102.2 L 293.5 -102.2 L 293.5 -102.2 Q 291.9 -102.2 291 -101.7 L 291 -101.7 L 291 -101.7 Q 290.1 -101.1 289.3 -100 Z M 328.5 -75.6 L 328.5 -75.6 L 328.5 -75.6 Q 326.5 -70.8 320.2 -70.8 L 320.2 -70.8 L 320.2 -70.8 Q 317 -70.8 315 -73 L 315 -73 L 315 -73 Q 313.3 -74.9 313.3 -77 L 313.3 -77 L 313.3 -77 Q 313.3 -81.8 315.5 -92.3 L 315.5 -92.3 L 320.2 -116.9 L 333.2 -118.2 L 327 -85.8 L 327 -85.8 Q 325.9 -81 325.9 -79.4 L 325.9 -79.4 L 325.9 -79.4 Q 325.9 -75.7 328.5 -75.6 Z M 349.3 -75.6 L 349.3 -75.6 L 349.3 -75.6 Q 347.3 -70.8 340.9 -70.8 L 340.9 -70.8 L 340.9 -70.8 Q 337.7 -70.8 335.7 -73 L 335.7 -73 L 335.7 -73 Q 334 -74.9 334 -77 L 334 -77 L 334 -77 Q 334 -81.8 336.3 -92.3 L 336.3 -92.3 L 340.9 -116.9 L 353.9 -118.2 L 347.7 -85.8 L 347.7 -85.8 Q 346.6 -81 346.6 -79.4 L 346.6 -79.4 L 346.6 -79.4 Q 346.6 -75.7 349.3 -75.6 Z M 380.6 -82.9 L 380.6 -82.9 L 380.6 -82.9 Q 382.2 -81.8 382.2 -79.4 L 382.2 -79.4 L 382.2 -79.4 Q 382.2 -77 381 -75.5 L 381 -75.5 L 381 -75.5 Q 379.8 -73.9 377.8 -72.9 L 377.8 -72.9 L 377.8 -72.9 Q 373.7 -70.8 369.3 -70.8 L 369.3 -70.8 L 369.3 -70.8 Q 364.9 -70.8 362.3 -71.8 L 362.3 -71.8 L 362.3 -71.8 Q 359.7 -72.7 358 -74.5 L 358 -74.5 L 358 -74.5 Q 354.6 -77.9 354.6 -84.1 L 354.6 -84.1 L 354.6 -84.1 Q 354.6 -93.8 359.8 -99.7 L 359.8 -99.7 L 359.8 -99.7 Q 365.4 -106 375.2 -106 L 375.2 -106 L 375.2 -106 Q 381.3 -106 384.3 -103.4 L 384.3 -103.4 L 384.3 -103.4 Q 386.6 -101.5 386.6 -98.4 L 386.6 -98.4 L 386.6 -98.4 Q 386.6 -87.1 367.1 -87.1 L 367.1 -87.1 L 367.1 -87.1 Q 366.9 -85.5 366.9 -84.1 L 366.9 -84.1 L 366.9 -84.1 Q 366.9 -81.1 368.2 -80 L 368.2 -80 L 368.2 -80 Q 369.5 -78.9 371.9 -78.9 L 371.9 -78.9 L 371.9 -78.9 Q 374.3 -78.9 376.9 -80 L 376.9 -80 L 376.9 -80 Q 379.5 -81.1 380.6 -82.9 Z M 367.6 -89.9 L 367.6 -89.9 L 367.6 -89.9 Q 372.1 -89.9 374.7 -92.7 L 374.7 -92.7 L 374.7 -92.7 Q 377.4 -95.4 377.4 -99.7 L 377.4 -99.7 L 377.4 -99.7 Q 377.4 -101.1 376.8 -101.9 L 376.8 -101.9 L 376.8 -101.9 Q 376.3 -102.7 375.2 -102.7 L 375.2 -102.7 L 375.2 -102.7 Q 374.1 -102.7 373.2 -102.3 L 373.2 -102.3 L 373.2 -102.3 Q 372.2 -101.9 371.3 -100.5 L 371.3 -100.5 L 371.3 -100.5 Q 368.9 -97.3 367.6 -89.9 Z M 408.8 -90.1 L 408.8 -90.1 L 408.8 -90.1 Q 411.1 -94.2 411.1 -98.3 L 411.1 -98.3 L 411.1 -98.3 Q 411.1 -101.1 409.1 -101.1 L 409.1 -101.1 L 409.1 -101.1 Q 407.6 -101.1 406 -98.5 L 406 -98.5 L 406 -98.5 Q 404.3 -95.8 403.8 -92.4 L 403.8 -92.4 L 400.5 -72.1 L 387.2 -70.8 L 393.7 -104.7 L 404.3 -106 L 403.1 -99.5 L 403.1 -99.5 Q 406.3 -106 413.3 -106 L 413.3 -106 L 413.3 -106 Q 417 -106 419 -104.1 L 419 -104.1 L 419 -104.1 Q 421.1 -102.2 421.1 -98.2 L 421.1 -98.2 L 421.1 -98.2 Q 421.1 -94.3 418.5 -91.8 L 418.5 -91.8 L 418.5 -91.8 Q 415.9 -89.3 411.5 -89.3 L 411.5 -89.3 L 411.5 -89.3 Q 409.5 -89.3 408.8 -90.1 Z M 442.4 -79.3 L 442.4 -79.3 L 442.4 -79.3 Q 439.1 -75.9 433 -75.9 L 433 -75.9 L 433 -75.9 Q 425.4 -75.9 423.8 -81.4 L 423.8 -81.4 L 423.8 -81.4 Q 423.3 -83.1 423.3 -84.9 L 423.3 -84.9 L 423.3 -84.9 Q 423.3 -86.8 423.7 -88.7 L 423.7 -88.7 L 426.7 -104.7 L 439.7 -106 L 436.2 -87.4 L 436.2 -87.4 Q 436 -86.5 435.8 -85.7 L 435.8 -85.7 L 435.8 -85.7 Q 435.7 -84.8 435.7 -83.8 L 435.7 -83.8 L 435.7 -83.8 Q 435.7 -82.9 436 -82.3 L 436 -82.3 L 436 -82.3 Q 436.3 -81.7 436.7 -81.3 L 436.7 -81.3 L 436.7 -81.3 Q 437.5 -80.8 438.9 -80.8 L 438.9 -80.8 L 438.9 -80.8 Q 440.3 -80.8 441.4 -82.5 L 441.4 -82.5 L 441.4 -82.5 Q 442.6 -84.1 443.2 -87 L 443.2 -87 L 446.7 -104.7 L 459.3 -106 L 454.5 -80.9 L 454.5 -80.9 Q 452.2 -68.6 447.3 -63.7 L 447.3 -63.7 L 447.3 -63.7 Q 444.8 -61.2 441.6 -60.2 L 441.6 -60.2 L 441.6 -60.2 Q 438.3 -59.2 434.2 -59.2 L 434.2 -59.2 L 434.2 -59.2 Q 427.5 -59.2 423.6 -61.3 L 423.6 -61.3 L 423.6 -61.3 Q 419.8 -63.4 419.8 -67 L 419.8 -67 L 419.8 -67 Q 419.8 -69.6 421.8 -71.1 L 421.8 -71.1 L 421.8 -71.1 Q 423.8 -72.6 426.8 -72.6 L 426.8 -72.6 L 426.8 -72.6 Q 429.5 -72.6 431.6 -71.4 L 431.6 -71.4 L 431.6 -71.4 Q 432.8 -70.7 433.4 -69.8 L 433.4 -69.8 L 433.4 -69.8 Q 431.9 -68.6 431.9 -66.5 L 431.9 -66.5 L 431.9 -66.5 Q 431.9 -63.6 434.4 -63.6 L 434.4 -63.6 L 434.4 -63.6 Q 438.7 -63.6 441.1 -73.4 L 441.1 -73.4 L 441.1 -73.4 Q 441.8 -76.2 442.4 -79.3 Z"></path></g></g><style>text {
  font-size: 64px;
  font-family: Arial Black;
  dominant-baseline: central;
  text-anchor: middle;
}</style></svg>